<svg width="132" height="32" xmlns="http://www.w3.org/2000/svg" xmlns:xlink="http://www.w3.org/1999/xlink">
    <defs>
        <path id="a" d="M0 33h131.816V.974H0z"/>
    </defs>
    <g fill="none" fill-rule="evenodd">
        <path fill="#CED629" d="M0 32.026h4.002v-6.799H0z"/>
        <path fill="#47B9C0" d="M4.002 32.026h4.004v-6.799H4.002z"/>
        <path fill="#8B3F92" d="M8.005 32.026h4.002v-6.799H8.005z"/>
        <path fill="#ED8068" d="M12.007 32.026h4.002v-6.799h-4.002z"/>
        <path fill="#0080BE" d="M16.01 32.026h4.002v-6.799h-4.003z"/>
        <path fill="#F5BF0E" d="M20.01 32.026h4.004v-6.799H20.01z"/>
        <path fill="#94988D" d="M24.014 32.026h4.002v-6.799h-4.002z"/>
        <path fill="#F08D1D" d="M28.016 32.026h4.003v-6.799h-4.003z"/>
        <g transform="translate(0 -.974)">
            <path d="M58.673 18.064H53.63v-6.48h5.043c1.36 0 2.429.282 3.175.84.74.552 1.1 1.306 1.1 2.302 0 2.246-1.399 3.338-4.275 3.338m2.673-9.502c-.604.513-1.504.773-2.673.773H53.63v-5.7h5.043c2.402 0 3.57.973 3.57 2.977 0 .8-.294 1.438-.897 1.95m3.827 4.58a4.921 4.921 0 0 0-.692-1.403c-.516-.733-1.182-1.25-1.983-1.543a4.224 4.224 0 0 0 1.474-1.463c.484-.806.731-1.655.731-2.526 0-1.698-.623-2.976-1.854-3.8-1.03-.678-2.434-1.02-4.176-1.02h-7.44v18.896h7.44c2.637 0 4.541-.705 5.661-2.097.713-.909 1.074-2.063 1.074-3.43 0-.565-.079-1.108-.235-1.614M105.878 1.386v14.668L95.812 1.385l-2.686.001v18.897h2.669V5.557l10.067 14.726h2.686V1.386zM123.358 9.276l8.148-7.89h-3.264l-9.32 8.926V1.386h-2.335v18.898h2.335v-6.593l2.606-2.714 7.21 9.309 3.077-.003zM80.296 1.386h-2.465l-7.59 18.897 2.777.001 2.062-5.776L79.008 4.25l5.942 16.029 2.681.005z" fill="#888A8C"/>
            <mask id="b" fill="#fff">
                <use xlink:href="#a"/>
            </mask>
            <path fill="#888A8C" mask="url(#b)" d="M73.776 15.911h10.371v-2.057H73.776z"/>
            <path fill="#6D7071" mask="url(#b)" d="M3.045.974H.065V20.3H12.21v-2.505H3.045zM29.524.974v7.482h-9.19V.974h-2.98V20.3h2.98v-9.34h9.19v9.34h2.98V.974z"/>
        </g>
    </g>
</svg>
